<?xml version="1.0" encoding="UTF-8"?>
<svg xmlns="http://www.w3.org/2000/svg" xmlns:xlink="http://www.w3.org/1999/xlink" width="30pt" height="30pt" viewBox="0 0 30 30" version="1.1">
<g id="surface1">
<path style=" stroke:none;fill-rule:nonzero;fill:#FFFFFF;fill-opacity:1;" d="M 13 3 C 12.734375 2.996094 12.472656 3.101563 12.285156 3.289063 C 12.09375 3.476563 11.988281 3.730469 11.984375 4 L 6 4 C 5.640625 3.996094 5.304688 4.183594 5.121094 4.496094 C 4.941406 4.808594 4.941406 5.191406 5.121094 5.503906 C 5.304688 5.816406 5.640625 6.003906 6 6 L 24 6 C 24.359375 6.003906 24.695313 5.816406 24.878906 5.503906 C 25.058594 5.191406 25.058594 4.808594 24.878906 4.496094 C 24.695313 4.183594 24.359375 3.996094 24 4 L 18.015625 4 C 18.011719 3.730469 17.90625 3.476563 17.714844 3.289063 C 17.527344 3.101563 17.265625 2.996094 17 3 Z M 6 8 L 6 24 C 6 25.105469 6.894531 26 8 26 L 22 26 C 23.105469 26 24 25.105469 24 24 L 24 8 Z M 12 13 C 12.253906 13 12.511719 13.097656 12.707031 13.292969 L 15 15.585938 L 17.292969 13.292969 C 17.683594 12.902344 18.316406 12.902344 18.707031 13.292969 C 19.097656 13.683594 19.097656 14.316406 18.707031 14.707031 L 16.414063 17 L 18.707031 19.292969 C 19.097656 19.683594 19.097656 20.316406 18.707031 20.707031 C 18.511719 20.902344 18.257813 21 18 21 C 17.742188 21 17.488281 20.902344 17.292969 20.707031 L 15 18.414063 L 12.707031 20.707031 C 12.511719 20.902344 12.257813 21 12 21 C 11.742188 21 11.488281 20.902344 11.292969 20.707031 C 10.902344 20.316406 10.902344 19.683594 11.292969 19.292969 L 13.585938 17 L 11.292969 14.707031 C 10.902344 14.316406 10.902344 13.683594 11.292969 13.292969 C 11.488281 13.097656 11.746094 13 12 13 Z "/>
</g>
</svg>
