<?xml version="1.0" encoding="UTF-8"?>
<svg xmlns="http://www.w3.org/2000/svg" xmlns:xlink="http://www.w3.org/1999/xlink" width="30pt" height="30pt" viewBox="0 0 30 30" version="1.1">
<g id="surface1">
<path style=" stroke:none;fill-rule:nonzero;fill:#FFFFFF;fill-opacity:1;" d="M 6 3 C 4.894531 3 4 3.894531 4 5 L 4 9 C 4 10.105469 4.894531 11 6 11 L 22 11 C 23.105469 11 24 10.105469 24 9 L 24 5 C 24 3.894531 23.105469 3 22 3 Z M 26 6 C 25.640625 5.996094 25.304688 6.183594 25.121094 6.496094 C 24.941406 6.808594 24.941406 7.191406 25.121094 7.503906 C 25.304688 7.816406 25.640625 8.003906 26 8 L 26 11.425781 C 26 12.421875 25.285156 13.253906 24.300781 13.40625 L 16.390625 14.621094 C 14.449219 14.921875 13 16.605469 13 18.574219 L 13 20.277344 C 12.40625 20.625 12 21.261719 12 22 L 12 25 C 12 26.105469 12.894531 27 14 27 C 15.105469 27 16 26.105469 16 25 L 16 22 C 16 21.261719 15.59375 20.625 15 20.277344 L 15 18.574219 C 15 17.578125 15.710938 16.75 16.695313 16.597656 L 24.609375 15.378906 C 24.609375 15.382813 24.609375 15.382813 24.609375 15.378906 C 26.554688 15.082031 28 13.394531 28 11.425781 L 28 7 C 28 6.449219 27.550781 6 27 6 Z "/>
</g>
</svg>
