<?xml version="1.0" encoding="UTF-8"?>
<svg xmlns="http://www.w3.org/2000/svg" xmlns:xlink="http://www.w3.org/1999/xlink" width="24pt" height="24pt" viewBox="0 0 24 24" version="1.1">
<g id="surface1">
<path style=" stroke:none;fill-rule:nonzero;fill:#FFFFFF;fill-opacity:1;" d="M 12 2 C 5.363281 2 0 7.363281 0 14 C 0 16.621094 0.859375 19.125 2.28125 21.09375 L 3.90625 19.90625 C 2.910156 18.527344 2.246094 16.8125 2.0625 15 L 3 15 L 3 13 L 2.03125 13 C 2.226563 10.976563 3.042969 9.132813 4.25 7.65625 L 4.90625 8.3125 L 6.3125 6.90625 L 5.65625 6.25 C 7.136719 5.046875 8.976563 4.257813 11 4.0625 L 11 5 L 13 5 L 13 4.0625 C 15.023438 4.257813 16.863281 5.046875 18.34375 6.25 L 17.6875 6.90625 L 19.09375 8.3125 L 19.75 7.65625 C 20.957031 9.132813 21.773438 10.976563 21.96875 13 L 21 13 L 21 15 L 21.9375 15 C 21.753906 16.8125 21.089844 18.527344 20.09375 19.90625 L 21.71875 21.09375 C 23.140625 19.125 24 16.621094 24 14 C 24 7.363281 18.636719 2 12 2 Z M 17.6875 8.3125 L 12.21875 12.03125 C 12.144531 12.023438 12.074219 12 12 12 C 10.894531 12 10 12.894531 10 14 C 10 15.105469 10.894531 16 12 16 C 13.105469 16 14 15.105469 14 14 C 14 13.925781 13.976563 13.855469 13.96875 13.78125 Z "/>
</g>
</svg>
